<svg xmlns="http://www.w3.org/2000/svg" viewBox="0 0 71.9 71.9" fill="#f0c064"><path d="M32.2,29.95c-2.37.94-4.37,2.74-5.54,4.97-.67,1.28-1.06,2.82-.48,4.14.59,1.34,2.11,2.14,3.6,2.19s2.93-.53,4.19-1.31c1.38-.86,2.62-2,3.31-3.45s.76-3.24-.07-4.62-3.47-2.47-5-1.92"/><path d="M29.66,22.06c-2.78,1.57-5.41,3.45-7.71,5.66-2.33,2.24-2.8,4.5-2.41,7.63.67,5.29,1.58,13.34,8.08,14.51,3.15.56,6.64.06,9.71-.75,2.76-.73,5.46-1.85,7.25-4.14,3.44-4.4,3.41-11.75,1.97-16.86-.83-2.95-2.33-5.64-5.52-6.44-3.77-.94-7.2-.7-10.94.22-1.7.42-1.62,3.01.08,2.59,3.24-.8,7.12-1.18,10.38-.17,3.14.97,3.8,5.4,3.99,8.18.2,2.81.13,5.9-.87,8.57-1.1,2.94-3.46,4.42-6.42,5.28s-6.7,1.62-9.76.75c-3.19-.91-3.83-4.72-4.46-7.48-.7-3.07-1.99-7.11.46-9.64,2.17-2.25,5-4.19,7.72-5.72,1.52-.86-.03-3.05-1.55-2.19h0Z"/><path d="M25.78,13.39c-9.42,2.22-14.31,13.78-14.36,22.43-.03,5,1.45,9.73,3.99,14.03,1.33,2.25,2.83,5.03,4.9,6.7,1.89,1.53,4.57,2.41,6.91,3.01,5.24,1.36,11.18,1.37,15.86-1.59,4.21-2.67,7.87-6.41,10.56-10.56,2.64-4.07,4.34-8.8,4.48-13.65.15-5.09-1.47-10.47-3.72-15.02-1.07-2.17-2.55-4.23-4.58-5.61-2.42-1.65-5.25-1.77-8.1-1.78-6.2-.02-12.37.23-18.12,2.74-2.13.93-.47,3.98,1.64,3.05,4.32-1.89,9.29-2.16,13.96-2.21,2.1-.02,4.4-.25,6.45.23,1.97.45,3.42,1.79,4.5,3.42,2.23,3.38,3.6,7.8,4.16,11.76.6,4.22-.24,8.54-2.13,12.35-1.78,3.59-4.31,6.75-7.32,9.43-1.64,1.46-3.47,2.96-5.52,3.82-2.23.94-4.76,1.03-7.15.86-2.21-.16-4.4-.68-6.48-1.46-1.04-.39-2.17-.83-3.05-1.51-1.02-.79-1.68-2.01-2.39-3.06-2.42-3.61-4.46-7.39-5.04-11.74-.57-4.28.08-8.77,1.87-12.71,1.83-4.04,5.8-8.93,10.39-10,2.27-.53.56-3.45-1.71-2.92h0Z"/><path d="M19.72,3.28l-1.42.74c-5.58,3.49-10.23,7.61-13.54,13.31C.97,23.86.29,31.43.02,38.82c-.14,3.87.4,7.56,2.07,11.08,1.51,3.19,3.85,5.94,6.01,8.73,2.28,2.95,4.41,6.19,7.02,8.88s6,3.82,9.71,4.15c7.48.68,15.32.01,22.03-3.49,6.44-3.36,11.39-8.75,15.74-14.39s9.21-11.72,9.3-19.41c.09-7.39-3.31-14.89-6.99-21.17-2.13-3.65-5.44-6.23-8.82-8.71S48.79.76,44.46.36C36.11-.43,26.48-.17,18.88,3.69c-4.15,2.1-1.83,5.93,2.38,3.95,3.2-1.51,13.95-2.43,19.88-2.21,2.79.1,6.67,1.22,9.23,2.43,2.66,1.25,5.3,3.43,7.39,5.46,2.18,2.12,3.64,6.41,4.92,9.1,1.38,2.89,2.48,4.73,3.08,7.88.5,2.61.22,5.96-.62,8.49-.95,2.89-3.16,7.26-4.92,9.7-3.39,4.69-6.77,9.1-12.31,12.13-5.49,3.01-9.16,5.42-15.39,5.46-2.7.02-7.33-.06-9.85-1.21-2.26-1.03-4.71-2.98-6.16-4.85-2.02-2.62-4.25-5.18-6.16-7.88-1.6-2.27-3.41-4.61-4.31-7.28-1.23-3.64-1.58-7.99-1.23-11.52.31-3.16,2.28-9.25,3.69-12.13,2.67-5.42,7.63-10.35,12.75-13.55"/></svg>