<svg xmlns="http://www.w3.org/2000/svg" viewBox="0 0 48 72"><path fill="#ffffff" d="M48,36.33c0,6.33-5.11,11.48-11.43,11.53-.02,0-.04,0-.06,0-.05,0-.13,0-.23,0-1.85,0-11.81.63-12.92,13.29-.36,6.05-5.37,10.84-11.52,10.84S.31,66.83.31,60.46s5.16-11.54,11.53-11.54c.13,0,.26,0,.39.01,1.97-.09,11.45-1.12,12.69-12.41,0,0,0,.01,0,.02,0-.07,0-.14,0-.22-.83-12.87-11.2-13.27-12.85-13.26-.08,0-.15,0-.23,0C5.47,23.08.31,17.91.31,11.54S5.47,0,11.84,0s11.54,5.17,11.54,11.54c1.08,12.63,13.08,13.25,13.08,13.25,6.37,0,11.54,5.17,11.54,11.54Z"/><circle fill="#ffffff" cx="36.46" cy="60.46" r="11.54"/><circle fill="#ffffff" cx="36.46" cy="11.54" r="11.54"/><circle fill="#ffffff" cx="11.54" cy="35.88" r="11.54"/></svg>