<?xml version="1.0" encoding="UTF-8"?><svg id="Layer_2" xmlns="http://www.w3.org/2000/svg" viewBox="0 0 217.57 72"><defs><style>.cls-1{fill:#d0cf44;}.cls-2{fill:#194d2a;}</style></defs><g id="Layer_1-2"><path class="cls-2" d="M64.41,16.08v-.09c0-9.88,5.31-15.99,13.92-15.99s13.88,6.11,13.88,15.99v.09c0,9.88-5.31,15.99-13.88,15.99s-13.92-6.11-13.92-15.99ZM86.19,16.08v-.09c0-8.08-3.12-11.86-7.86-11.86s-7.86,3.78-7.86,11.86v.09c0,8.08,3.07,11.86,7.86,11.86s7.86-3.78,7.86-11.86Z"/><path class="cls-2" d="M96.38,31.41V9.49h5.4v4.22c1.49-3.29,4.04-4.88,7.2-4.88,5.05,0,7.34,3.43,7.34,7.82v14.76h-5.45v-13.75c0-3.16-1.14-4.7-3.82-4.7-3.25,0-5.27,2.55-5.27,6.5v11.95h-5.4Z"/><path class="cls-2" d="M122.25,24.86v-11.77h-3.34v-3.6h3.34V3.16h5.4v6.33h6.32v3.6h-6.32v11.77c0,2.11.75,2.86,2.59,2.86,1.05,0,2.28-.13,3.6-.31v3.82c-1.58.31-3.29.48-4.83.48-4.96,0-6.76-1.98-6.76-6.85Z"/><path class="cls-2" d="M152.43,27.45c-1.36,2.77-3.95,4.61-7.2,4.61-5.53,0-9.14-5.01-9.14-11.38v-.48c0-6.41,3.6-11.38,9.14-11.38,3.25,0,5.84,1.8,7.2,4.57V.66h5.4v30.75h-5.4v-3.95ZM141.67,20.2v.48c0,5.27,2.2,7.86,5.49,7.86,2.99,0,5.4-3.03,5.4-7.86v-.48c0-4.88-2.42-7.86-5.4-7.86-3.29,0-5.49,2.59-5.49,7.86Z"/><path class="cls-2" d="M161.7,20.6v-.31c0-6.72,4.26-11.46,10.76-11.46s10.37,4.26,10.37,11.51v.97h-15.64c.18,4.83,2.37,7.25,5.84,7.25,1.98,0,3.82-1.19,5.62-4.26l4,1.76c-1.93,3.95-5.67,6.02-9.75,6.02-6.81,0-11.2-4.48-11.2-11.46ZM167.32,18.23h10.01c-.31-4.17-1.84-5.93-4.83-5.93-2.81,0-4.7,2.11-5.18,5.93Z"/><path class="cls-2" d="M186.73,31.41V.66h5.4v19.06l8.83-10.23h5.71l-7.29,8.3,8.13,13.62h-6.06l-5.84-9.93-3.47,3.95v5.97h-5.4Z"/><path class="cls-2" d="M63,69.54l1.89-4.04c1.49,1.05,3.07,1.63,4.52,1.63,2.59,0,4.13-1.14,4.13-4.57v-21.96h5.84v22.01c0,6.37-3.29,9.27-9.14,9.27-2.64,0-5.4-.92-7.25-2.33Z"/><path class="cls-2" d="M83.73,60.54v-.31c0-6.72,4.26-11.46,10.76-11.46s10.37,4.26,10.37,11.51v.97h-15.64c.18,4.83,2.37,7.25,5.84,7.25,1.98,0,3.82-1.19,5.62-4.26l4,1.76c-1.93,3.95-5.67,6.02-9.75,6.02-6.81,0-11.2-4.48-11.2-11.46ZM89.35,58.16h10.01c-.31-4.17-1.84-5.93-4.83-5.93-2.81,0-4.7,2.11-5.18,5.93Z"/><path class="cls-2" d="M118.61,71.34v-30.75h12.91c6.98,0,10.15,3.25,10.15,7.86,0,3.69-2.28,6.28-6.28,7.07,4.83.7,7.16,3.47,7.16,7.38,0,5.4-3.95,8.43-10.89,8.43h-13.05ZM124.45,53.68h5.89c3.73,0,5.36-1.54,5.36-4.61s-1.63-4.57-5.36-4.57h-5.89v9.18ZM130.51,67.43c4.08,0,5.97-1.58,5.97-4.92s-1.89-4.96-5.97-4.96h-6.06v9.88h6.06Z"/><path class="cls-2" d="M146.54,71.34v-21.92h5.4v5.23c1.32-3.73,3.82-5.53,7.07-5.53.35,0,.7.04.97.09v5.1c-.48-.04-1.32-.13-1.8-.13-3.87,0-6.24,2.11-6.24,6.85v10.32h-5.4Z"/><path class="cls-2" d="M162,60.54v-.31c0-6.72,4.26-11.46,10.76-11.46s10.37,4.26,10.37,11.51v.97h-15.64c.18,4.83,2.37,7.25,5.84,7.25,1.98,0,3.82-1.19,5.62-4.26l4,1.76c-1.93,3.95-5.67,6.02-9.75,6.02-6.81,0-11.2-4.48-11.2-11.46ZM167.63,58.16h10.01c-.31-4.17-1.84-5.93-4.83-5.93-2.81,0-4.7,2.11-5.18,5.93Z"/><path class="cls-2" d="M187.26,46.3v-5.18h5.4v5.18h-5.4ZM187.26,71.34v-21.92h5.4v21.92h-5.4Z"/><path class="cls-2" d="M197.62,71.34v-21.92h5.4v4.22c1.49-3.29,4.04-4.88,7.2-4.88,5.05,0,7.34,3.43,7.34,7.82v14.76h-5.45v-13.75c0-3.16-1.14-4.7-3.82-4.7-3.25,0-5.27,2.55-5.27,6.5v11.95h-5.4Z"/><path class="cls-1" d="M33.11,65.96h-.09s.05,0,.08,0t.01,0Z"/><path class="cls-2" d="M48,36.33c0,6.33-5.11,11.48-11.43,11.53-.02,0-.04,0-.06,0-.05,0-.13,0-.23,0-1.85,0-11.81.63-12.92,13.29-.36,6.05-5.37,10.84-11.52,10.84S.31,66.83.31,60.46s5.16-11.54,11.53-11.54c.13,0,.26,0,.39.01,1.97-.09,11.45-1.12,12.69-12.41,0,0,0,.01,0,.02,0-.07,0-.14,0-.22-.83-12.87-11.2-13.27-12.85-13.26-.08,0-.15,0-.23,0C5.47,23.08.31,17.91.31,11.54S5.47,0,11.84,0s11.54,5.17,11.54,11.54c1.08,12.63,13.08,13.25,13.08,13.25,6.37,0,11.54,5.17,11.54,11.54Z"/><circle class="cls-1" cx="36.46" cy="60.46" r="11.54"/><circle class="cls-1" cx="36.46" cy="11.54" r="11.54"/><circle class="cls-1" cx="11.54" cy="35.88" r="11.54"/></g></svg>